<?xml version="1.0" encoding="UTF-8" standalone="no"?>
<svg
   xmlns:dc="http://purl.org/dc/elements/1.1/"
   xmlns:cc="http://creativecommons.org/ns#"
   xmlns:rdf="http://www.w3.org/1999/02/22-rdf-syntax-ns#"
   xmlns:svg="http://www.w3.org/2000/svg"
   xmlns="http://www.w3.org/2000/svg"
   xmlns:sodipodi="http://sodipodi.sourceforge.net/DTD/sodipodi-0.dtd"
   xmlns:inkscape="http://www.inkscape.org/namespaces/inkscape"
   inkscape:version="1.0.1 (1.0.1+r74)"
   id="svg8"
   version="1.1"
   viewBox="0 0 15.875 10.583333"
   height="40"
   width="60"
   sodipodi:docname="drawing-tools.svg">
  <defs
     id="defs2" />
  <sodipodi:namedview
     units="px"
     showgrid="true"
     inkscape:document-rotation="0"
     inkscape:current-layer="layer1"
     inkscape:document-units="px"
     inkscape:cy="20.075346"
     inkscape:cx="31.316204"
     inkscape:zoom="5.6"
     inkscape:pageshadow="2"
     inkscape:pageopacity="0.0"
     borderopacity="1.0"
     bordercolor="#666666"
     pagecolor="#ffffff"
     id="base"
     inkscape:snap-bbox="true"
     inkscape:bbox-paths="true"
     inkscape:bbox-nodes="true"
     inkscape:snap-bbox-edge-midpoints="true"
     inkscape:snap-bbox-midpoints="true"
     inkscape:object-paths="true"
     inkscape:snap-intersection-paths="true"
     inkscape:snap-smooth-nodes="true"
     inkscape:snap-midpoints="true"
     inkscape:snap-object-midpoints="true"
     inkscape:snap-center="true"
     inkscape:snap-text-baseline="true"
     inkscape:snap-page="true"
     inkscape:snap-grids="true"
     inkscape:window-width="1366"
     inkscape:window-height="703"
     inkscape:window-x="0"
     inkscape:window-y="0"
     inkscape:window-maximized="1">
    <inkscape:grid
       spacingy="0.26458333"
       empspacing="4"
       spacingx="0.26458333"
       id="grid1402"
       type="xygrid"
       originx="0"
       originy="0" />
    <sodipodi:guide
       position="7.9374999,4.2333332"
       orientation="-6.001476,-5.9940942"
       id="guide913" />
    <sodipodi:guide
       position="8.4666666,6.8791665"
       orientation="-6.001476,5.9940938"
       id="guide917" />
  </sodipodi:namedview>
  <metadata
     id="metadata5">
    <rdf:RDF>
      <cc:Work
         rdf:about="">
        <dc:format>image/svg+xml</dc:format>
        <dc:type
           rdf:resource="http://purl.org/dc/dcmitype/StillImage" />
        <dc:title />
      </cc:Work>
    </rdf:RDF>
  </metadata>
  <g
     id="layer1"
     inkscape:groupmode="layer"
     inkscape:label="Layer 1">
    <rect
       style="fill:#363645;stroke-width:1.05833;stroke-linecap:round;stroke-miterlimit:4;stroke-dasharray:none;paint-order:markers fill stroke"
       id="rect879"
       width="15.875"
       height="0.79375023"
       x="-1.0000003e-07"
       y="9.7895832"
       ry="0.39687511" />
    <path
       id="rect881"
       style="fill:#363645;stroke-width:3.99999;stroke-linecap:round;stroke-miterlimit:4;stroke-dasharray:none;paint-order:markers fill stroke"
       d="M 13,0 C 10.784,0 9,1.784 9,4 v 33 c 0,2.215999 0.7840002,3 3,3 h 36 c 2.215998,0 3,-0.784001 3,-3 V 12 9 L 43,0 Z m -1,3 h 28 v 5 c 0,3 1,4 4,4 h 4 V 37 H 12 Z"
       transform="scale(0.26458333)"
       sodipodi:nodetypes="csssssccccccsscccc" />
    <path
       style="fill:#ccccd7;fill-opacity:1;stroke-width:3.99999;stroke-linecap:round;stroke-miterlimit:4;stroke-dasharray:none;paint-order:markers fill stroke"
       d="m 12,3 h 28 v 5 c 0,3 1,4 4,4 h 4 V 37 H 12 Z"
       transform="scale(0.26458333)"
       id="path1009" />
    <path
       id="path1133"
       style="fill:#363645;fill-opacity:1;stroke:none;stroke-width:0.999999px;stroke-linecap:butt;stroke-linejoin:miter;stroke-opacity:1"
       d="m 29,10 -7,14 4,4 v 4 h 8 V 28 L 38,24 31,10 V 20.269531 A 1.9999999,1.9999999 0 0 1 32,22 a 1.9999999,1.9999999 0 0 1 -2,2 1.9999999,1.9999999 0 0 1 -2,-2 1.9999999,1.9999999 0 0 1 1,-1.730469 z"
       transform="scale(0.26458333)" />
    <rect
       style="fill:#e6e6e6;fill-opacity:1;stroke:none;stroke-width:0.79375;stroke-linecap:round;stroke-miterlimit:4;stroke-dasharray:none;stroke-opacity:1;paint-order:markers fill stroke"
       id="rect1236"
       width="7.4083333"
       height="0.52916664"
       x="3.175"
       y="0.79374999"
       ry="1.9209287e-09" />
    <rect
       style="fill:#e6e6e6;fill-opacity:1;stroke:none;stroke-width:0.79375;stroke-linecap:round;stroke-miterlimit:4;stroke-dasharray:none;stroke-opacity:1;paint-order:markers fill stroke"
       id="rect1242"
       width="0.52916664"
       height="6.614583"
       x="12.170831"
       y="3.175"
       ry="2.0879651e-09" />
  </g>
</svg>
